<svg width="128" height="128" viewBox="0 0 1200 1200" fill="none" xmlns="http://www.w3.org/2000/svg">
  <g transform="scale(0.1, -0.1) translate(0, -12000)" fill="currentColor">
    <path d="M6019 11026 c-8 -9 -20 -23 -26 -31 -7 -7 -13 -22 -13 -32 0 -11 -16-45 -35 -77 -19 -32 -35 -64 -35 -71 0 -8 -3 -15 -7 -17 -8 -3 -46 -77 -103-203 -71 -154 -83 -181 -92 -205 -6 -14 -14 -32 -19 -40 -5 -8 -12 -22 -15-30 -3 -8 -11 -26 -16 -40 -6 -14 -15 -36 -20 -50 -6 -14 -16 -38 -24 -53 -8-16 -14 -35 -14 -43 0 -8 -4 -14 -10 -14 -5 0 -10 -8 -10 -17 0 -10 -12 -40-25 -68 -14 -27 -25 -56 -25 -62 0 -7 -4 -13 -10 -13 -5 0 -10 -9 -10 -19 0-11 -4 -23 -10 -26 -5 -3 -10 -14 -10 -23 0 -9 -7 -30 -15 -46 -8 -15 -15 -35-15 -42 0 -8 -4 -14 -10 -14 -5 0 -10 -10 -10 -23 0 -13 -11 -47 -25 -75 -14-29 -25 -56 -25 -62 0 -6 -4 -18 -9 -28 -5 -9 -14 -30 -21 -47 -20 -48 -42-99 -51 -117 -5 -10 -9 -24 -9 -31 0 -7 -11 -37 -25 -65 -14 -29 -25 -61 -25-71 0 -11 -4 -23 -10 -26 -5 -3 -10 -16 -10 -29 0 -12 -13 -34 -28 -49 -23-22 -38 -27 -78 -27 -27 0 -69 -5 -93 -11 -68 -15 -344 -39 -661 -56 -80 -5-151 -12 -159 -17 -13 -8 -111 -17 -396 -36 -354 -24 -425 -29 -495 -39 -41-6 -150 -10 -241 -11 -162 0 -166 0 -188 -24 -19 -20 -22 -32 -17 -60 7 -37 3-33 204 -180 23 -17 87 -65 141 -106 54 -41 160 -120 236 -175 76 -55 143-105 149 -110 6 -6 65 -51 131 -100 66 -48 215 -159 330 -245 116 -86 231-172 256 -191 26 -19 100 -74 165 -123 66 -49 138 -103 161 -120 l42 -31 1-67 c0 -37 -4 -70 -10 -73 -5 -3 -10 -18 -10 -33 -1 -15 -7 -38 -15 -52 -8-14 -14 -44 -15 -67 0 -23 -4 -45 -10 -48 -5 -3 -10 -26 -10 -50 0 -24 -4 -47-10 -50 -5 -3 -10 -20 -10 -36 0 -16 -7 -46 -15 -66 -8 -19 -15 -48 -15 -64 0-15 -4 -31 -10 -34 -5 -3 -10 -26 -10 -50 0 -24 -4 -47 -10 -50 -5 -3 -10 -21-10 -40 0 -19 -5 -46 -11 -62 -12 -28 -25 -90 -36 -168 -3 -22 -9 -44 -14 -50-5 -5 -9 -21 -9 -36 0 -15 -5 -40 -11 -56 -12 -28 -24 -81 -37 -163 -4 -25-11 -50 -14 -55 -3 -6 -9 -27 -12 -48 -3 -21 -11 -47 -16 -57 -6 -10 -10 -32-10 -49 0 -16 -4 -33 -10 -36 -5 -3 -10 -24 -10 -45 0 -21 -4 -41 -9 -44 -5-4 -12 -30 -16 -59 -4 -28 -11 -56 -15 -62 -4 -5 -10 -26 -13 -45 -9 -60 -18-94 -33 -127 -17 -37 -18 -63 -3 -63 6 0 178 100 382 223 869 522 1370 8201387 824 11 3 53 -16 102 -45 45 -27 137 -82 203 -121 66 -39 127 -75 135 -8033 -20 740 -444 965 -579 364 -220 390 -234 393 -218 2 7 -8 53 -22 102 -2384 -111 441 -143 584 -27 117 -30 133 -76 330 -108 470 -217 957 -217 974 0 684 74 188 151 194 145 450 335 1052 783 195 146 401 299 457 341 83 62 104 82109 108 3 17 3 40 0 51 -8 24 -31 27 -268 41 -92 5 -172 13 -179 17 -7 4 -8312 -168 16 -86 5 -208 13 -271 18 -63 4 -185 13 -270 19 -85 6 -162 14 -17017 -8 4 -73 11 -145 16 -71 5 -173 13 -225 18 -52 4 -162 13 -245 19 -82 6-169 15 -192 21 -23 5 -62 10 -87 10 -79 0 -89 9 -125 107 -92 250 -388 975-461 1130 -17 34 -30 64 -30 67 0 16 -235 499 -273 560 -22 35 -25 37 -38 22z"/>
    <path d="M1104 10083 c-3 -10 -10 -28 -15 -41 -5 -13 -9 -34 -9 -47 0 -13 -4-27 -10 -30 -5 -3 -10 -19 -10 -34 0 -15 -4 -31 -9 -36 -9 -9 -25 -61 -37-125 -3 -14 -9 -34 -14 -45 -5 -11 -11 -33 -14 -50 -6 -37 -26 -113 -37 -140-4 -11 -10 -40 -13 -65 -7 -64 -23 -150 -34 -185 -16 -47 -26 -222 -26 -435 0-214 9 -321 30 -362 8 -15 14 -38 14 -52 0 -14 5 -28 10 -31 6 -3 10 -15 10-26 0 -10 4 -27 9 -37 6 -9 29 -57 51 -106 66 -142 119 -212 310 -409 93 -96133 -128 176 -141 19 -6 28 3 64 60 120 190 203 411 242 644 19 116 16 454 -6570 -49 259 -136 506 -240 682 -66 111 -150 216 -273 341 -117 119 -156 142-169 100z"/>
    <path d="M10754 9968 c-72 -73 -148 -160 -168 -193 -21 -33 -47 -69 -58 -81-10 -12 -32 -46 -47 -75 -15 -30 -33 -64 -38 -74 -6 -11 -15 -31 -21 -45 -5-14 -17 -43 -27 -65 -66 -158 -93 -240 -102 -308 -3 -20 -9 -40 -14 -43 -5 -3-9 -25 -9 -49 0 -24 -5 -56 -11 -72 -15 -38 -32 -208 -32 -313 0 -109 18 -28732 -323 6 -16 11 -43 11 -62 0 -19 5 -37 10 -40 6 -3 10 -17 10 -30 0 -13 4-34 9 -47 15 -40 43 -112 51 -133 4 -11 19 -45 34 -75 14 -30 26 -59 26 -63 0-4 16 -33 35 -63 19 -30 35 -58 35 -62 0 -4 14 -22 30 -41 29 -32 32 -33 57-20 41 22 193 165 273 258 161 187 262 386 305 601 40 203 27 576 -31 870 -29146 -141 568 -174 655 -19 50 -48 33 -186 -107z"/>
    <path d="M11600 8309 c-37 -20 -84 -39 -97 -39 -7 0 -21 -4 -31 -9 -9 -5 -24-12 -32 -15 -8 -4 -33 -17 -55 -31 -22 -14 -49 -30 -60 -35 -11 -6 -38 -22-60 -35 -22 -14 -47 -28 -55 -32 -52 -23 -440 -412 -440 -442 0 -4 -13 -21-30 -38 -16 -17 -43 -55 -59 -84 -36 -67 -130 -255 -143 -289 -5 -14 -16 -38-24 -53 -8 -16 -14 -39 -14 -52 0 -13 -4 -27 -10 -30 -5 -3 -10 -21 -10 -40 0-19 -4 -37 -10 -40 -5 -3 -10 -19 -10 -35 0 -16 -5 -41 -12 -57 -22 -53 -31-158 -31 -368 0 -208 9 -304 36 -400 13 -48 15 -50 50 -49 62 2 233 82 387182 138 89 261 218 450 472 189 252 258 403 331 720 55 239 50 455 -17 767 -527 -33 44 -54 32z"/>
    <path d="M398 8290 c-12 -7 -18 -23 -18 -48 0 -20 -5 -53 -11 -72 -29 -97 -52-511 -29 -534 5 -5 10 -24 10 -42 0 -17 7 -48 15 -67 8 -20 15 -52 15 -71 0-19 5 -38 10 -41 6 -3 10 -20 10 -36 0 -35 28 -127 41 -135 5 -3 9 -15 9 -270 -25 82 -198 116 -244 13 -17 24 -35 24 -39 0 -6 54 -85 84 -121 8 -10 35-45 60 -78 25 -33 49 -64 53 -70 188 -236 292 -325 516 -444 102 -54 241 -106257 -96 4 3 16 28 25 55 54 163 61 523 14 750 -38 179 -115 397 -186 523 -1833 -33 61 -33 63 0 10 -127 191 -150 214 -3 3 -25 30 -50 60 -103 127 -266273 -370 331 -14 8 -32 19 -40 25 -8 6 -46 28 -85 49 -38 20 -74 41 -79 46 -65 -18 9 -28 9 -10 0 -18 5 -18 10 0 6 -10 10 -23 10 -13 0 -27 4 -32 9 -16 16-88 22 -107 11z"/>
    <path d="M11657 6383 c-7 -7 -118 -21 -232 -29 -38 -3 -74 -10 -79 -15 -6 -5-21 -9 -35 -9 -15 -1 -37 -7 -51 -15 -14 -8 -39 -14 -57 -15 -17 0 -35 -4 -38-10 -3 -5 -16 -10 -28 -10 -33 -1 -347 -161 -355 -182 -2 -4 -8 -8 -13 -8 -90 -98 -57 -126 -80 -7 -5 -17 -10 -24 -10 -6 0 -21 -10 -33 -23 -11 -12 -43-40 -71 -62 -27 -22 -55 -47 -61 -55 -17 -22 -50 -59 -95 -107 -70 -75 -203-259 -232 -323 -4 -8 -16 -28 -26 -45 -11 -16 -20 -38 -20 -47 -1 -10 -5 -18-11 -18 -5 0 -10 -6 -10 -14 0 -8 -6 -27 -14 -43 -14 -27 -28 -62 -48 -113 -6-14 -16 -38 -23 -55 -8 -16 -16 -46 -20 -65 -29 -162 -45 -306 -38 -337 5 -229 -23 127 -23 439 1 877 179 1177 479 228 229 378 540 464 966 41 199 44 25016 265 -23 12 -35 13 -44 3z"/>
    <path d="M338 6370 c-26 -7 -36 -50 -19 -84 5 -12 12 -39 15 -61 10 -79 24-154 32 -167 5 -7 12 -35 16 -63 15 -103 20 -125 29 -131 5 -3 9 -13 9 -22 0-9 7 -30 15 -46 8 -15 15 -37 15 -47 0 -10 5 -21 10 -24 6 -3 10 -14 10 -25 0-10 11 -40 24 -67 13 -26 41 -84 62 -128 21 -44 42 -81 46 -83 4 -2 8 -8 8-14 0 -14 93 -141 158 -216 31 -35 90 -92 131 -126 311 -260 683 -395 1084-396 l147 0 0 70 c0 253 -151 636 -360 915 -93 124 -320 337 -427 400 -18 11-33 23 -33 27 0 4 -7 8 -15 8 -8 0 -36 15 -62 33 -45 32 -148 84 -238 121 -2210 -48 21 -57 26 -10 6 -27 10 -37 10 -11 0 -23 5 -26 10 -3 6 -17 10 -29 10-13 0 -40 7 -59 15 -20 8 -52 15 -71 15 -19 0 -38 5 -41 10 -3 6 -34 10 -6910 -34 0 -66 4 -71 9 -11 11 -163 19 -197 11z"/>
    <path d="M10588 4604 c-4 -4 -63 -11 -130 -15 -159 -11 -206 -17 -245 -35 -17-8 -47 -14 -66 -14 -20 0 -39 -4 -42 -10 -3 -5 -24 -10 -45 -10 -21 0 -42 -4-45 -10 -3 -5 -19 -10 -35 -10 -16 0 -41 -6 -57 -14 -15 -8 -39 -18 -53 -24-88 -33 -188 -81 -225 -107 -16 -11 -43 -27 -60 -35 -27 -13 -123 -77 -135-90 -3 -3 -34 -30 -70 -60 -80 -68 -74 -62 -140 -140 -30 -36 -57 -67 -61 -70-3 -3 -18 -23 -35 -45 -16 -22 -35 -46 -42 -53 -35 -38 -91 -127 -144 -232-18 -36 -36 -66 -40 -68 -5 -2 -8 -19 -8 -38 0 -37 23 -54 109 -79 149 -45482 -69 628 -46 222 35 571 155 782 268 302 162 544 412 681 705 51 111 57136 34 144 -11 3 -28 9 -39 14 -37 14 -109 32 -170 41 -195 31 -336 45 -34733z"/>
    <path d="M1245 4593 c-27 -2 -59 -8 -70 -13 -11 -5 -45 -11 -75 -13 -56 -5-131 -22 -162 -38 -10 -5 -23 -9 -30 -9 -7 0 -19 -9 -25 -19 -10 -17 -7 -3022 -87 19 -38 35 -72 35 -77 0 -4 16 -33 35 -63 19 -30 35 -59 35 -64 0 -6 4-10 8 -10 4 0 16 -15 27 -32 82 -141 309 -359 475 -457 199 -117 545 -251 765-296 262 -54 699 -17 832 71 29 18 27 27 -34 149 -58 116 -120 204 -273 390-54 64 -218 215 -234 215 -3 0 -17 10 -32 23 -14 12 -47 33 -72 47 -26 14 -6134 -77 45 -28 19 -121 66 -172 86 -13 5 -33 13 -45 18 -117 49 -157 61 -19661 -17 0 -34 5 -37 10 -3 6 -23 10 -43 10 -20 1 -55 7 -77 15 -22 8 -59 15-83 15 -24 0 -51 4 -60 9 -18 9 -355 20 -437 14z"/>
    <path d="M2907 3294 c-4 -4 -37 -10 -74 -15 -119 -14 -218 -36 -265 -60 -10-5 -29 -9 -43 -9 -14 0 -33 -4 -43 -10 -9 -5 -34 -16 -54 -25 -82 -33 -170-80 -261 -138 -31 -20 -60 -37 -63 -37 -17 0 -84 -70 -84 -88 0 -13 34 -66 87-134 61 -79 185 -180 313 -256 70 -41 247 -103 365 -127 166 -34 321 -45 613-45 441 0 611 47 931 257 69 46 131 84 136 86 17 6 -15 54 -84 123 -114 115-341 266 -491 327 -94 39 -116 48 -132 57 -10 6 -27 10 -37 10 -11 0 -23 5-26 10 -3 6 -17 10 -31 10 -14 0 -34 5 -45 10 -10 6 -40 15 -66 21 -27 6 -7015 -98 21 -56 12 -537 22 -548 12z"/>
    <path d="M8676 3293 c-4 -4 -35 -11 -69 -15 -85 -9 -179 -27 -192 -37 -5 -4-30 -13 -55 -20 -25 -7 -54 -17 -65 -22 -68 -100 -39 -116 -39 -11 0 -19-4 -19 -10 0 -5 -7 -10 -15 -10 -9 0 -33 -11 -55 -25 -22 -14 -44 -25 -49 -25-9 0 -110 -64 -170 -108 -13 -9 -34 -24 -46 -32 -73 -48 -194 -162 -232 -217-21 -31 -5 -54 69 -99 35 -21 99 -61 143 -89 152 -98 289 -148 495 -181 88-14 155 -15 415 -11 415 7 566 30 781 118 198 80 401 242 489 387 32 55 36 6725 85 -13 25 -201 147 -225 147 -8 0 -15 4 -15 9 0 5 -11 12 -25 15 -14 4 -2511 -25 16 0 6 -7 10 -15 10 -8 0 -23 4 -33 9 -9 5 -35 17 -57 26 -22 9 -48 20-57 25 -10 6 -27 10 -37 10 -11 0 -23 5 -26 10 -3 6 -19 10 -34 10 -15 0 -325 -38 11 -6 6 -35 13 -64 16 -30 3 -62 9 -71 14 -9 5 -41 9 -72 9 -30 0 -58 5-61 10 -7 12 -467 14 -479 3z"/>
    <path d="M5059 2636 c-3 -3 -50 -11 -105 -16 -148 -16 -225 -27 -264 -38 -48-14 -102 -33 -122 -43 -10 -5 -25 -9 -33 -9 -8 0 -23 -4 -33 -10 -9 -5 -35-16 -57 -25 -22 -9 -48 -21 -57 -26 -10 -5 -25 -9 -33 -9 -8 0 -15 -4 -15 -100 -5 -8 -10 -19 -10 -10 0 -24 -7 -31 -15 -7 -8 -16 -15 -21 -15 -5 0 -32 -15-61 -33 -29 -18 -66 -39 -83 -47 -16 -8 -44 -25 -61 -37 -17 -13 -36 -23 -42-23 -7 0 -12 -3 -12 -8 0 -4 -16 -16 -35 -26 -39 -21 -223 -209 -299 -305 -54-68 -78 -124 -67 -156 7 -20 87 -66 151 -85 251 -78 428 -110 601 -110 237 0476 44 809 149 99 31 315 143 413 214 143 104 276 241 365 379 50 77 48 96-16 123 -20 9 -45 21 -54 26 -10 5 -26 9 -37 9 -10 0 -24 7 -31 15 -7 8 -1915 -26 15 -8 0 -22 4 -32 9 -47 24 -163 61 -191 61 -9 0 -21 4 -27 9 -9 9 -4515 -199 31 -155 16 -270 23 -276 16z"/>
    <path d="M6675 2610 c-11 -5 -46 -9 -78 -9 -31 -1 -65 -5 -75 -10 -9 -6 -44-17 -77 -26 -33 -9 -68 -21 -77 -26 -10 -5 -24 -9 -31 -9 -13 0 -59 -19 -99-41 -10 -5 -25 -9 -33 -9 -8 0 -15 -4 -15 -10 0 -5 -8 -10 -17 -10 -33 -1 -98-54 -101 -83 -8 -63 163 -270 334 -405 104 -82 281 -184 384 -221 19 -7 44-17 55 -21 93 -39 373 -107 575 -141 112 -19 396 -16 499 4 124 25 338 83 401108 153 62 155 96 19 264 -76 94 -300 305 -324 305 -5 0 -18 8 -29 19 -12 10-42 30 -68 44 -25 14 -64 37 -87 51 -22 14 -47 26 -55 26 -8 0 -16 5 -18 11-2 5 -11 11 -20 12 -9 2 -22 7 -29 13 -14 10 -39 22 -109 52 -19 8 -43 19 -5223 -10 5 -27 9 -37 9 -11 0 -23 5 -26 10 -3 6 -21 10 -39 10 -17 0 -37 5 -4210 -11 11 -73 25 -189 42 -90 13 -514 20 -540 8z"/>
  </g>
</svg>
