<svg version="1.0" xmlns="http://www.w3.org/2000/svg" viewBox="0 0 978.000000 980.000000" preserveAspectRatio="xMidYMid meet"><g transform="translate(0.000000,980.000000) scale(0.100000,-0.100000)" fill="currentColor" stroke="none"><path d="M4763 9703 c6 -91 21 -205 37 -284 11 -51 9 -182 -3 -251 -13 -72 -20 -96 -38 -135 -10 -24 -19 -47 -19 -52 0 -13 -44 -95 -52 -99 -5 -2 -8 -8 -8 -14 0 -19 -60 -96 -132 -169 -72 -73 -192 -162 -255 -190 -18 -8 -33 -17 -33 -21 0 -5 -5 -8 -11 -8 -6 0 -30 -13 -54 -30 -24 -16 -48 -30 -53 -30 -5 0 -17 -9 -27 -20 -10 -11 -22 -20 -27 -20 -33 0 -183 -155 -218 -225 -8 -16 -17 -32 -20 -35 -13 -13 -30 -52 -30 -69 -0 -11 -4 -23 -10 -26 -5 -3 -10 -24 -10 -45 0 -21 -4 -41 -8 -44 -9 -6 -26 -256 -22 -316 7 -93 5 -113 -12 -123 -23 -15 -47 8 -87 82 -56 105 -63 150 -71 461 -8 297 -15 352 -60 440 -38 74 -130 156 -220 197 -125 56 -149 64 -285 93 -156 33 -243 42 -451 47 -270 6 -270 7 -119 -162 39 -44 93 -109 120 -145 49 -66 137 -240 150 -295 24 -109 28 -140 28 -230 0 -92 -5 -130 -31 -225 -14 -53 -71 -190 -94 -230 -12 -19 -34 -59 -49 -88 -16 -30 -37 -66 -47 -80 -19 -27 -37 -64 -66 -136 -18 -44 -23 -266 -6 -338 5 -24 17 -74 26 -113 9 -38 19 -91 21 -117 5 -44 3 -48 -16 -48 -29 0 -114 44 -176 91 -58 44 -98 90 -205 234 -161 218 -248 281 -451 325 -87 19 -325 0 -429 -33 -86 -28 -179 -66 -190 -77 -3 -3 -36 -21 -75 -41 -38 -20 -71 -43 -73 -51 -2 -11 33 -27 135 -63 296 -102 442 -207 527 -378 53 -107 65 -157 96 -412 8 -65 20 -136 36 -213 3 -18 10 -35 15 -38 5 -3 9 -13 -9 -23 0 -31 61 -145 106 -198 57 -66 156 -132 264 -175 76 -30 85 -37 88 -62 3 -23 -6 -38 -39 -72 -24 -24 -48 -44 -54 -44 -5 0 -21 -9 -35 -20 -14 -11 -33 -20 -42 -20 -10 0 -18 -4 -18 -10 0 -5 -9 -10 -19 -10 -11 0 -22 -4 -25 -9 -15 -24 -277 -40 -341 -21 -140 42 -179 64 -315 175 -128 104 -164 123 -285 151 -55 13 -227 16 -238 5 -6 -6 -24 -11 -39 -11 -16 0 -36 -4 -46 -9 -9 -5 -42 -21 -73 -35 -32 -15 -62 -33 -69 -41 -7 -8 -18 -15 -24 -15 -22 0 -226 -224 -226 -248 0 -5 -9 -17 -20 -27 -11 -10 -20 -24 -20 -32 0 -7 -4 -13 -8 -13 -5 0 -15 -12 -23 -27 -8 -16 -21 -36 -30 -46 -9 -9 -22 -30 -30 -45 -7 -15 -24 -44 -37 -65 -13 -21 -32 -54 -43 -73 -10 -19 -28 -50 -39 -69 -42 -75 -32 -77 198 -44 267 39 400 28 583 -51 209 -89 330 -209 464 -455 105 -193 217 -321 353 -401 156 -93 248 -114 493 -114 l169 0 -6 -27 c-3 -16 -7 -33 -9 -39 -6 -19 -106 -63 -171 -76 -34 -7 -167 -12 -314 -13 -165 -1 -268 -6 -292 -13 -21 -7 -55 -17 -75 -23 -45 -12 -127 -51 -131 -61 -2 -5 -10 -8 -18 -8 -37 0 -174 -170 -174 -216 0 -8 -4 -14 -10 -14 -5 0 -10 -9 -10 -19 0 -11 -5 -23 -10 -26 -6 -3 -10 -17 -10 -30 0 -13 -5 -27 -10 -30 -5 -3 -10 -19 -10 -34 0 -15 -4 -31 -9 -37 -5 -5 -12 -29 -15 -54 -3 -25 -10 -72 -16 -105 -6 -33 -15 -152 -20 -265 -4 -113 -11 -219 -15 -237 -4 -18 -4 -44 -1 -58 6 -24 8 -25 34 -11 15 8 72 53 126 101 132 115 207 167 309 215 135 63 191 75 357 75 122 0 158 -4 225 -24 101 -29 257 -102 358 -169 187 -123 324 -135 655 -62 73 17 134 30 136 30 2 0 6 -14 10 -30 5 -27 -8 -76 -24 -90 -3 -3 -13 -21 -22 -40 -17 -35 -130 -160 -145 -160 -5 0 -20 -10 -33 -22 -14 -13 -48 -38 -75 -57 -124 -85 -200 -154 -246 -222 -53 -79 -79 -127 -79 -147 0 -10 -4 -22 -9 -28 -31 -33 -31 -410 0 -430 5 -3 -9 -20 9 -39 0 -19 5 -37 10 -40 6 -3 -10 -17 -10 -30 0 -13 -5 -27 -10 -30 6 -3 10 -16 10 -28 0 -27 93 -218 114 -236 8 -7 19 -10 24 -7 17 10 49 88 77 186 52 182 123 300 245 404 66 57 172 110 260 130 36 8 137 24 225 36 205 27 270 43 375 93 129 62 216 155 295 311 73 145 85 155 128 104 117 -135 206 -371 179 -474 -7 -24 -12 -60 -12 -79 0 -18 -4 -37 -10 -40 -6 -3 -10 -17 -10 -31 0 -13 -3 -24 -8 -24 -4 0 -15 -17 -25 -37 -9 -21 -33 -58 -52 -83 -19 -25 -38 -52 -42 -60 -4 -8 -19 -31 -34 -50 -40 -52 -111 -181 -139 -255 -41 -108 -45 -255 -10 -348 55 -147 131 -231 363 -405 223 -167 437 -313 449 -306 9 6 6 41 -23 245 -38 269 -21 415 71 604 86 177 184 275 411 409 281 166 372 251 463 432 59 119 68 161 75 371 3 105 10 195 14 199 12 12 57 -37 79 -86 53 -116 61 -171 63 -458 1 -141 7 -263 12 -275 6 -12 16 -40 23 -61 18 -57 76 -144 132 -198 106 -103 361 -186 667 -217 135 -14 418 -14 426 -1 8 13 -17 46 -115 155 -220 244 -331 522 -299 750 15 114 38 174 149 394 131 259 154 335 154 506 0 117 -3 141 -31 235 -17 58 -33 120 -37 138 -6 33 -6 33 27 27 59 -12 152 -63 213 -119 35 -31 97 -107 144 -176 140 -204 245 -294 404 -347 70 -23 99 -27 206 -27 137 -1 162 4 355 76 107 40 241 102 278 130 27 20 9 32 -93 62 -120 35 -154 47 -247 88 -97 43 -221 148 -282 238 -76 112 -102 197 -126 410 -25 227 -61 366 -118 460 -37 61 -128 149 -181 175 -28 14 -62 34 -75 44 l-25 19 17 78 c32 148 34 152 75 165 56 17 295 24 361 9 83 -17 204 -80 311 -161 122 -91 180 -124 259 -149 122 -38 295 -20 430 46 85 42 201 150 266 249 22 33 84 119 137 191 122 165 212 310 205 328 -5 12 -53 15 -259 19 -248 5 -390 16 -472 38 -139 38 -291 131 -392 240 -45 50 -123 162 -174 254 -60 106 -140 226 -183 273 -63 68 -176 138 -312 193 -35 13 -86 20 -230 29 -200 13 -255 26 -255 60 0 30 75 88 137 106 49 15 98 17 320 15 288 -2 352 5 448 48 80 37 128 80 186 169 79 121 131 277 164 498 20 136 39 514 26 527 -15 15 -56 -15 -241 -178 -111 -99 -170 -135 -295 -180 -78 -29 -265 -46 -369 -35 -99 11 -145 19 -171 29 -71 29 -118 51 -190 91 -172 96 -291 150 -333 150 -11 0 -23 4 -26 9 -6 10 -106 23 -181 23 -76 1 -141 -11 -238 -44 -67 -22 -98 -28 -127 -23 l-39 7 14 37 c47 135 123 224 295 345 201 142 294 254 336 406 24 87 24 292 1 412 -37 188 -136 418 -179 418 -16 0 -38 -28 -38 -49 0 -11 -4 -23 -10 -26 -5 -3 -10 -15 -10 -26 0 -10 -4 -27 -9 -37 -5 -9 -15 -37 -21 -62 -13 -44 -98 -230 -111 -240 -3 -3 -12 -16 -19 -29 -20 -38 -79 -98 -143 -147 -59 -44 -104 -68 -192 -99 -47 -17 -170 -37 -340 -55 -55 -5 -120 -15 -145 -21 -199 -48 -332 -152 -418 -325 -68 -138 -73 -144 -110 -144 -51 0 -113 55 -152 133 -46 93 -63 191 -57 322 8 172 41 246 185 418 44 51 94 123 111 159 34 68 60 188 61 274 1 158 -76 327 -195 432 -72 64 -530 362 -555 362 -5 0 -24 9 -42 20 -56 34 -60 29 -55 -57z m502 -2451 c402 -72 742 -220 1030 -450 92 -74 237 -204 303 -272 81 -83 245 -305 312 -421 43 -74 160 -315 160 -328 0 -6 4 -19 9 -29 34 -66 54 -132 102 -327 40 -162 52 -279 52 -515 0 -226 -9 -359 -24 -374 -5 -6 -9 -31 -9 -57 0 -26 -4 -51 -10 -54 -5 -3 -10 -24 -10 -45 0 -21 -4 -42 -10 -45 -5 -3 -10 -17 -10 -31 0 -13 -4 -32 -9 -42 -5 -9 -17 -46 -27 -82 -9 -36 -21 -69 -26 -74 -4 -6 -8 -18 -8 -27 0 -9 -8 -34 -19 -56 -10 -21 -29 -60 -41 -88 -12 -27 -27 -59 -33 -70 -9 -18 -75 -136 -109 -198 -7 -12 -16 -24 -19 -27 -3 -3 -25 -34 -49 -69 -23 -35 -50 -73 -59 -84 -154 -188 -275 -310 -411 -417 -25 -19 -49 -38 -55 -43 -49 -39 -132 -97 -141 -97 -5 0 -19 -8 -30 -17 -10 -10 -46 -32 -79 -49 -33 -17 -85 -44 -115 -60 -47 -25 -119 -58 -205 -94 -11 -5 -38 -14 -60 -21 -22 -7 -44 -17 -49 -21 -6 -4 -20 -8 -32 -8 -13 0 -26 -4 -29 -10 -3 -5 -19 -10 -35 -10 -16 0 -31 -4 -34 -9 -3 -5 -23 -11 -43 -14 -21 -3 -60 -11 -88 -17 -255 -58 -693 -58 -947 -1 -27 6 -67 15 -90 20 -76 17 -182 49 -233 71 -11 4 -51 20 -90 35 -94 36 -230 102 -282 137 -23 15 -45 28 -48 28 -12 0 -197 131 -275 194 -176 144 -361 353 -493 557 -452 704 -509 1583 -150 2316 100 205 300 482 430 599 37 34 109 98 158 144 108 99 309 235 462 313 220 113 469 193 728 236 178 30 173 29 410 26 161 -3 250 -9 330 -23z"/></g></svg>