<svg version="1.0" xmlns="http://www.w3.org/2000/svg" viewBox="0 0 860 782" preserveAspectRatio="xMidYMid meet"><g transform="translate(0,782) scale(0.1,-0.1)" fill="currentColor" stroke="none"><path d="M8097 7403 c-4 -3 -42 -12 -85 -19 -120 -20 -196 -35 -212 -42 -8 -3 -44 -11 -80 -18 -60 -11 -167 -35 -250 -54 -19 -5 -69 -16 -110 -25 -41 -9 -104 -23 -140 -31 -36 -9 -96 -22 -135 -29 -100 -20 -188 -40 -205 -47 -8 -4 -40 -11 -70 -17 -30 -7 -83 -18 -118 -26 -123 -29 -198 -46 -240 -55 -23 -5 -51 -14 -61 -20 -11 -5 -28 -10 -39 -10 -25 0 -52 -31 -52 -61 0 -42 34 -82 250 -302 115 -118 210 -220 210 -227 0 -14 -2483 -2498 -2524 -2525 l-25 -16 -333 328 c-504 498 -501 495 -555 471 -41 -18 -118 -76 -198 -149 -111 -102 -442 -430 -1671 -1656 l-1154 -1152 0 -45 c0 -79 30 -123 193 -283 170 -167 228 -213 267 -213 74 0 176 95 1448 1365 607 605 1108 1102 1113 1104 6 1 180 -165 387 -371 214 -212 397 -386 422 -400 61 -35 122 -45 152 -24 13 9 615 607 1338 1329 1773 1770 1683 1682 1710 1667 13 -7 114 -101 226 -210 113 -109 222 -207 244 -218 81 -40 103 -12 154 196 78 322 247 1100 311 1439 41 212 40 257 -3 299 -41 39 -144 69 -165 47z"/><path d="M6708 4711 l-578 -577 0 -1745 0 -1744 38 -47 c20 -26 48 -51 62 -55 14 -5 237 -8 495 -8 444 0 473 1 514 19 81 37 74 -82 79 1416 5 1652 -5 3320 -22 3320 -6 -1 -271 -261 -588 -579z"/><path d="M5152 3157 l-582 -582 0 -942 c0 -995 1 -1011 46 -1054 35 -33 121 -39 589 -39 l451 0 32 30 c61 55 59 38 63 720 6 911 0 2450 -8 2450 -5 0 -270 -263 -591 -583z"/><path d="M3255 3107 c-11 -7 -75 -69 -142 -138 l-123 -126 0 -1029 c1 -1115 3 -1179 51 -1230 43 -46 73 -49 544 -49 605 0 573 -13 587 232 4 87 7 505 6 928 l-3 770 -55 6 c-170 20 -240 69 -603 422 -120 117 -224 215 -230 219 -7 3 -21 1 -32 -5z"/><path d="M2007 1864 l-577 -576 0 -325 0 -325 41 -49 41 -49 506 1 507 1 48 54 47 54 0 738 c0 806 -6 1052 -25 1052 -7 0 -271 -259 -588 -576z"/></g></svg>