<?xml version="1.0" standalone="no"?>
<!DOCTYPE svg PUBLIC "-//W3C//DTD SVG 20010904//EN"
 "http://www.w3.org/TR/2001/REC-SVG-20010904/DTD/svg10.dtd">
<svg version="1.0" xmlns="http://www.w3.org/2000/svg"
 width="385.000000pt" height="377.000000pt" viewBox="0 0 385.000000 377.000000"
 preserveAspectRatio="xMidYMid meet">

<g transform="translate(0.000000,377.000000) scale(0.100000,-0.100000)"
fill="#000000" stroke="none">
<path d="M1145 3466 c-44 -23 -99 -54 -122 -69 -24 -15 -46 -27 -50 -27 -25
-2 -258 -187 -323 -256 -81 -87 -197 -233 -221 -279 -12 -22 -34 -58 -48 -80
-15 -22 -39 -67 -55 -100 -15 -33 -32 -68 -37 -77 -5 -10 -9 -23 -9 -30 -1 -7
-9 -31 -20 -53 -11 -22 -19 -50 -20 -62 0 -12 -4 -24 -9 -27 -5 -3 -12 -27
-16 -52 -4 -26 -11 -54 -16 -63 -30 -55 -55 -369 -41 -524 14 -152 48 -332 71
-377 5 -9 12 -30 16 -49 4 -18 13 -44 21 -59 8 -15 14 -30 14 -34 0 -17 83
-183 122 -246 260 -417 663 -697 1142 -795 96 -19 142 -22 336 -22 235 0 286
6 470 57 426 116 809 419 1039 823 83 144 172 394 186 517 5 44 4 50 -6 33
-45 -76 -107 -161 -163 -227 -70 -82 -242 -238 -262 -238 -7 0 -14 -4 -16 -9
-4 -12 -129 -91 -144 -91 -7 0 -14 -3 -16 -7 -4 -10 -60 -37 -183 -88 -49 -21
-131 -43 -205 -56 -30 -5 -74 -14 -98 -20 -70 -15 -271 -21 -352 -10 -174 24
-216 31 -240 40 -14 5 -59 19 -100 32 -41 12 -115 41 -165 65 -451 216 -751
596 -857 1087 -32 148 -32 436 0 584 64 294 183 524 391 753 40 44 71 80 69
80 -2 -1 -39 -20 -83 -44z"/>
<path d="M2471 3476 c2 -2 33 -25 68 -51 278 -204 440 -538 428 -880 -2 -66
-9 -147 -15 -180 -12 -65 -53 -197 -64 -205 -3 -3 -10 -18 -13 -33 -4 -15 -11
-27 -15 -27 -5 0 -11 -13 -15 -30 -4 -16 -11 -30 -16 -30 -5 0 -9 -5 -9 -11 0
-36 -178 -241 -256 -293 -22 -15 -57 -40 -79 -56 -22 -16 -65 -41 -95 -55 -30
-15 -62 -30 -70 -35 -9 -4 -31 -11 -50 -15 -19 -4 -39 -11 -45 -15 -12 -9
-102 -28 -209 -42 -78 -11 -191 -4 -321 21 -174 32 -364 134 -509 272 -42 39
-76 67 -76 61 0 -7 13 -40 29 -74 152 -331 439 -570 800 -665 130 -34 363 -43
496 -19 311 57 576 219 758 462 164 219 241 448 241 724 0 170 -18 277 -71
420 -130 351 -404 611 -768 728 -90 29 -136 39 -124 28z"/>
<path d="M1783 3460 c-46 -4 -88 -12 -95 -17 -7 -6 -29 -14 -48 -18 -19 -4
-41 -11 -50 -15 -8 -5 -39 -20 -69 -35 -103 -51 -104 -52 -197 -139 -113 -106
-207 -257 -240 -386 -65 -257 -24 -513 114 -718 54 -78 178 -193 265 -244 281
-164 643 -154 907 25 57 39 120 90 120 98 0 9 -81 -20 -99 -34 -19 -16 -369
-16 -402 -1 -13 7 -44 19 -69 28 -117 41 -264 156 -344 270 -192 270 -181 643
25 898 105 130 260 228 418 265 l76 18 -60 6 c-75 8 -147 8 -252 -1z"/>
</g>
</svg>
