<svg width="128" height="128" viewBox="0 0 24 24" fill="none" xmlns="http://www.w3.org/2000/svg">
  <g fill="currentColor">
    <path d="M7.5 3.5c-4 2.5-6 7.5-5 12.5 1.5 6.5 8 10.5 14.5 9 3.5-1 6.5-3.5 8-7-2 4-6.5 6.5-11 6-5.5-.5-9.5-5-9.5-10.5 0-4 1.5-7.5 3-10z"/>
    <path d="M15.5 3.5c4.5 1.5 7.5 6 7 11-.5 5.5-5 9.5-10.5 9.5-3 0-5.5-1-7.5-2.5 4 2 9 1.5 12.5-1.5 3.5-3 4.5-8.5 2.5-12.5-1-1.5-2.5-3-4-4z"/>
    <path d="M11.5 4c-3 1-5 4-5.5 7.5-.5 5 3.5 9.5 8.5 9.5 2 0 4-.5 5.5-2-3 2.5-8 2.5-11 0-3-2.5-4-7-2.5-10.5 1-2 2.5-3.5 5-4.5z"/>
  </g>
</svg>
