<svg version="1.0" xmlns="http://www.w3.org/2000/svg" viewBox="100 -20 640 510" preserveAspectRatio="xMidYMid meet"><g transform="translate(0,469) scale(0.1,-0.1)" fill="currentColor" stroke="none"><path d="M3355 4200 c-3 -6 1 -7 9 -4 18 7 21 14 7 14 -6 0 -13 -4 -16 -10z"/><path d="M5104 4144 c128 -96 294 -270 358 -373 67 -110 148 -269 148 -292 0 -10 4 -20 8 -23 5 -3 16 -33 26 -68 10 -35 22 -79 27 -98 29 -104 51 -323 43 -430 -7 -90 -34 -281 -44 -305 -4 -11 -15 -47 -25 -80 -9 -33 -20 -68 -26 -77 -5 -10 -9 -22 -9 -27 0 -35 -136 -273 -214 -377 -54 -71 -260 -267 -326 -309 -162 -105 -354 -192 -495 -225 -44 -10 -137 -26 -207 -36 -372 -51 -796 75 -1119 332 -90 72 -275 270 -309 330 -15 27 -45 81 -66 119 -142 250 -211 572 -184 855 27 278 118 525 278 755 59 84 297 326 345 352 16 8 27 17 24 19 -11 11 -196 -103 -352 -218 -88 -65 -300 -278 -369 -372 -91 -123 -186 -282 -186 -310 0 -8 -3 -16 -7 -18 -10 -4 -60 -106 -68 -138 -6 -24 -12 -40 -35 -92 -21 -49 -40 -114 -40 -138 0 -15 -4 -30 -9 -35 -18 -20 -43 -216 -48 -385 -6 -208 15 -455 45 -539 5 -14 15 -46 22 -71 19 -70 42 -142 55 -175 7 -16 18 -46 26 -65 45 -118 195 -373 273 -465 139 -165 317 -330 446 -413 47 -30 101 -65 120 -77 59 -40 240 -120 350 -158 659 -221 1374 -87 1909 358 411 341 658 806 712 1340 14 142 7 359 -16 500 -89 545 -409 1044 -860 1339 -33 22 -78 52 -100 67 -41 27 -165 89 -180 89 -4 0 31 -30 79 -66z"/></g></svg>