<svg viewBox="0 0 1080 1080" xmlns="http://www.w3.org/2000/svg" fill="currentColor" stroke="none"><g transform="translate(0,1080) scale(0.1,-0.1)"><path d="M5220 9960 c-14 -4 -45 -8 -69 -9 -24 -1 -82 -12 -130 -26 -47 -14 -104 -31 -126 -37 -22 -6 -44 -15 -50 -18 -5 -4 -28 -13 -50 -20 -66 -20 -260 -125 -338 -183 -173 -128 -310 -269 -404 -417 -23 -36 -51 -77 -63 -92 -11 -15 -45 -78 -74 -140 -48 -99 -69 -154 -106 -273 -10 -32 -41 -194 -60 -312 -15 -93 -15 -376 -1 -431 -7 -23 -13 -85 -16 -137 -2 -53 -8 -101 -13 -108 -15 -18 -32 -87 -32 -128 -0 -44 36 -153 79 -238 98 -193 307 -450 474 -584 165 -132 276 -195 465 -263 171 -62 190 -64 550 -64 374 0 405 5 624 84 220 80 375 183 578 386 79 78 135 145 175 208 33 51 72 109 87 129 59 77 112 212 185 473 26 93 27 103 31 436 3 277 0 357 -12 425 -40 213 -127 426 -254 617 -110 166 -304 365 -466 476 -67 46 -139 92 -161 103 -81 41 -334 109 -500 135 -81 13 -414 19 -445 8z"/><path d="M1827 6753 c-16 -18 -17 -163 -17 -2555 l0 -2536 23 -6 c12 -3 65 -6 117 -6 52 0 111 -5 130 -11 19 -6 94 -15 165 -20 268 -19 468 -40 535 -57 25 -6 83 -16 130 -22 174 -23 239 -34 395 -67 88 -19 204 -43 257 -53 148 -30 565 -142 733 -198 390 -130 663 -236 963 -372 66 -31 199 -28 281 5 34 14 70 30 79 35 31 17 156 72 252 110 342 136 447 176 540 205 58 18 159 49 225 69 200 62 518 140 780 190 247 48 295 56 450 76 50 6 117 17 150 25 79 18 196 30 515 54 69 5 143 14 165 20 22 6 87 11 145 11 88 1 109 4 128 19 l22 19 -2 2539 -3 2538 -150 -1 c-82 -1 -211 -6 -285 -12 -74 -7 -187 -16 -250 -21 -63 -5 -140 -13 -170 -19 -30 -6 -104 -15 -165 -22 -60 -6 -128 -15 -150 -20 -22 -5 -107 -19 -190 -30 -82 -12 -170 -26 -195 -31 -25 -5 -85 -16 -135 -25 -49 -8 -121 -24 -160 -34 -38 -10 -86 -21 -105 -25 -101 -17 -279 -61 -390 -95 -69 -22 -165 -51 -215 -65 -102 -30 -120 -36 -300 -100 -236 -84 -338 -126 -523 -217 -216 -107 -207 -106 -354 -22 -364 208 -1152 453 -1873 583 -95 17 -199 33 -470 72 -33 5 -107 13 -164 19 -57 6 -108 13 -114 17 -16 10 -398 39 -642 49 -130 5 -142 4 -158 -13z m783 -672 c36 -5 106 -14 155 -21 50 -6 106 -15 125 -20 19 -5 71 -14 115 -21 44 -6 118 -20 165 -31 47 -10 137 -30 200 -43 240 -51 308 -66 390 -89 47 -14 141 -39 210 -56 187 -46 542 -163 651 -213 41 -19 119 -53 174 -76 139 -59 357 -177 390 -211 16 -16 31 -47 36 -72 12 -65 11 -3515 -2 -3560 -13 -51 -44 -58 -113 -29 -103 45 -607 211 -639 211 -7 0 -103 24 -212 54 -110 30 -247 64 -305 76 -58 13 -112 26 -121 31 -16 8 -149 34 -499 96 -210 37 -266 45 -515 72 -49 5 -97 12 -105 15 -8 3 -63 10 -121 15 -120 10 -160 26 -186 74 -17 30 -18 133 -18 1902 0 1554 2 1874 14 1894 12 22 17 23 80 18 36 -4 95 -10 131 -16z m5775 -5 c16 -16 25 -40 30 -77 3 -30 5 -875 3 -1879 -2 -1496 -5 -1829 -16 -1848 -21 -37 -87 -61 -167 -62 -38 0 -97 -7 -130 -15 -33 -8 -81 -15 -107 -15 -26 0 -78 -4 -115 -10 -38 -5 -104 -14 -148 -20 -44 -6 -114 -17 -155 -25 -41 -7 -109 -19 -150 -25 -214 -33 -780 -161 -950 -215 -41 -13 -91 -27 -110 -31 -58 -11 -432 -130 -582 -184 -85 -31 -149 -49 -162 -46 -53 13 -51 -74 -54 1791 -2 952 0 1758 3 1793 5 51 13 70 37 98 16 19 34 34 40 34 5 0 29 13 53 30 24 16 78 46 122 65 43 20 105 49 138 65 139 68 320 141 465 188 253 81 617 184 695 197 22 4 87 18 145 32 58 13 139 31 180 38 41 8 116 23 165 34 50 10 124 24 165 31 41 6 91 15 110 20 19 5 87 16 150 25 63 9 135 20 160 24 25 5 71 9 103 10 48 1 62 -3 82 -23z"/><path d="M2778 5553 c-14 -4 -16 -25 -17 -176 -1 -95 2 -177 6 -183 14 -20 123 -54 175 -54 29 0 77 -4 107 -10 31 -5 94 -14 141 -21 47 -6 114 -17 150 -24 36 -8 101 -21 145 -29 344 -66 855 -209 1105 -309 120 -47 226 -75 252 -65 8 4 18 21 22 38 8 40 8 337 0 367 -7 24 -73 56 -194 92 -41 13 -97 31 -125 42 -167 63 -708 203 -970 252 -190 36 -320 57 -470 77 -78 10 -293 12 -327 3z"/><path d="M2820 4921 c-62 -12 -60 -7 -60 -196 0 -95 3 -180 6 -189 3 -9 18 -16 33 -16 14 0 64 -6 111 -15 47 -8 126 -19 175 -25 203 -26 470 -78 685 -134 52 -13 142 -36 200 -51 95 -24 284 -81 550 -167 52 -17 113 -40 135 -52 30 -15 59 -20 117 -21 42 0 80 4 85 8 9 10 17 317 9 362 -4 19 -16 37 -34 47 -30 18 -290 107 -420 144 -45 13 -122 35 -170 49 -134 39 -256 70 -387 100 -66 15 -141 34 -166 41 -107 31 -460 87 -664 104 -60 5 -123 11 -140 14 -16 2 -46 1 -65 -3z"/><path d="M2760 4074 c0 -99 4 -184 8 -190 12 -20 100 -44 158 -44 31 0 95 -7 143 -15 47 -8 127 -21 176 -30 448 -75 870 -186 1335 -353 103 -37 176 -57 216 -59 l61 -5 7 32 c8 42 8 328 0 369 -4 17 -11 31 -16 31 -5 0 -73 23 -149 50 -77 28 -206 68 -286 90 -80 23 -161 47 -182 56 -94 40 -574 151 -861 200 -180 30 -226 35 -417 40 l-193 6 0 -178z"/><path d="M2767 3624 c-9 -9 -8 -377 1 -392 9 -14 79 -28 210 -42 45 -5 97 -13 115 -19 17 -5 70 -15 117 -21 47 -7 135 -22 195 -35 61 -13 139 -29 175 -35 80 -15 513 -124 595 -150 248 -78 446 -145 484 -163 34 -16 65 -22 118 -22 39 0 75 4 80 8 10 10 17 316 9 362 -6 30 -14 36 -74 61 -37 15 -71 31 -77 35 -26 17 -408 132 -660 197 -236 61 -385 95 -540 122 -109 18 -172 29 -366 60 -37 5 -97 10 -135 10 -38 0 -91 7 -118 15 -50 15 -118 20 -129 9z"/><path d="M2778 2943 c-14 -4 -16 -25 -17 -181 -1 -97 2 -182 6 -188 11 -14 84 -32 167 -39 38 -3 87 -10 110 -15 23 -5 104 -19 181 -30 262 -39 673 -135 940 -219 33 -10 114 -35 180 -56 150 -45 216 -68 327 -111 57 -22 105 -34 137 -34 46 0 49 1 55 31 8 39 8 346 0 375 -7 27 -17 31 -221 98 -308 100 -578 177 -773 221 -36 8 -103 24 -150 35 -148 35 -361 74 -485 89 -49 6 -120 16 -158 21 -66 10 -266 12 -299 3z"/><path d="M7753 5421 c-91 -66 -130 -143 -119 -236 8 -70 30 -95 106 -119 63 -20 65 -22 68 -57 4 -46 -14 -60 -85 -70 -31 -4 -60 -12 -65 -17 -18 -18 -21 -95 -5 -117 14 -18 27 -20 109 -20 87 0 96 2 142 31 66 43 102 98 116 183 19 115 -13 181 -96 197 -24 4 -40 16 -55 40 -27 44 -15 60 49 70 89 13 92 16 92 84 l0 60 -108 0 c-104 0 -111 -1 -149 -29z"/><path d="M7517 5335 c-27 -7 -52 -16 -55 -20 -4 -4 -21 -59 -38 -123 l-30 -117 -14 108 c-7 59 -16 110 -20 112 -8 5 -168 -39 -177 -49 -3 -3 -15 -54 -27 -113 l-22 -107 -29 98 -30 97 -30 -5 c-16 -2 -55 -11 -85 -18 -51 -14 -55 -17 -62 -51 -6 -29 1 -67 31 -175 22 -75 52 -184 66 -242 15 -58 31 -109 35 -113 4 -5 35 -3 69 4 67 13 75 21 107 113 23 63 47 116 54 116 4 0 17 -34 30 -76 13 -41 28 -78 33 -81 5 -3 42 1 82 8 l73 13 47 195 c25 108 55 232 66 275 10 44 19 99 19 123 0 49 -7 52 -93 28z"/><path d="M6815 5169 c-16 -5 -93 -27 -170 -48 l-140 -39 -3 -301 c-2 -256 0 -301 12 -301 22 0 348 79 375 90 22 10 23 14 16 78 -4 37 -8 68 -10 70 -2 2 -44 -8 -94 -22 l-91 -25 0 43 c0 49 2 50 112 80 l57 16 -6 53 c-3 28 -8 55 -12 59 -3 4 -33 0 -66 -7 -86 -21 -87 -20 -83 21 3 35 5 37 83 65 43 16 83 33 87 37 4 4 5 38 1 75 -6 72 -8 74 -68 56z"/><path d="M6338 5044 l-77 -24 -3 -91 -3 -91 -50 67 c-27 37 -55 74 -62 82 -10 12 -23 11 -103 -11 -51 -14 -94 -27 -96 -29 -6 -6 -5 -629 0 -635 3 -3 23 0 43 6 21 6 57 16 80 22 l42 11 3 135 3 135 60 -105 c69 -121 62 -119 185 -82 l75 22 0 303 c0 195 -4 305 -10 307 -5 1 -45 -9 -87 -22z"/><path d="M7700 4238 c-41 -4 -102 -13 -135 -18 -33 -5 -96 -14 -140 -20 -44 -7 -155 -28 -247 -47 l-168 -36 0 -539 c0 -509 1 -539 18 -534 91 26 407 91 540 110 56 8 107 18 113 22 6 3 54 10 107 15 112 9 264 27 267 31 4 3 8 660 6 881 l-1 147 -142 -1 c-79 -1 -177 -6 -218 -11z"/><path d="M6660 4031 c-30 -9 -60 -19 -65 -23 -6 -4 -89 -29 -185 -57 -96 -27 -238 -72 -315 -98 -114 -39 -142 -53 -152 -73 -13 -27 -18 -290 -7 -349 6 -30 7 -31 65 -31 44 0 93 12 191 46 73 25 187 63 253 83 66 21 159 51 208 66 l87 28 0 214 c0 164 -3 213 -12 212 -7 -1 -38 -9 -68 -18z"/><path d="M6665 3384 c-27 -8 -120 -35 -205 -60 -184 -54 -341 -104 -355 -114 -5 -4 -38 -17 -73 -30 -102 -37 -104 -43 -100 -247 1 -94 6 -174 10 -178 3 -4 25 -9 47 -12 34 -5 66 4 174 45 120 46 219 78 485 157 l92 28 0 214 c0 164 -3 213 -12 212 -7 0 -35 -7 -63 -15z"/><path d="M7807 2944 c-3 -4 -52 -10 -109 -15 -119 -10 -169 -17 -368 -53 -282 -50 -534 -114 -979 -246 -111 -33 -336 -115 -361 -131 -8 -5 -23 -12 -32 -15 -16 -6 -18 -24 -18 -194 0 -186 0 -188 23 -194 32 -8 117 -7 117 2 0 9 34 23 170 67 195 63 688 203 825 233 213 48 338 73 460 92 72 11 168 27 215 35 47 9 110 15 140 15 30 1 80 7 110 14 l55 12 3 186 c2 186 2 186 -20 192 -30 8 -223 8 -231 0z"/><path d="M1491 3911 c-17 -21 -42 -62 -57 -92 -15 -30 -28 -55 -29 -57 -1 -1 -22 9 -46 22 -47 27 -166 63 -175 53 -12 -12 55 -136 95 -176 22 -22 71 -56 108 -74 l67 -34 48 77 c50 82 73 154 63 204 -12 64 -28 116 -35 116 -5 0 -22 -17 -39 -39z"/><path d="M4829 3925 c-7 -17 -13 -70 -13 -120 l-1 -90 51 -82 51 -82 70 35 c86 41 163 120 191 197 11 28 16 53 11 55 -14 6 -119 -28 -172 -55 -27 -13 -50 -23 -51 -21 -1 2 -12 26 -25 54 -13 28 -40 71 -61 95 l-38 44 -13 -30z"/><path d="M1569 3517 c-25 -45 -52 -97 -59 -115 l-12 -32 -53 30 c-50 29 -175 80 -195 80 -17 0 -11 -33 19 -96 50 -106 119 -168 241 -217 l64 -26 22 42 c11 23 35 68 52 101 39 71 43 146 12 233 -33 94 -39 94 -91 0z"/><path d="M4724 3545 c-22 -48 -28 -75 -28 -135 -1 -71 2 -81 49 -172 l49 -96 63 23 c103 39 173 95 225 180 28 46 61 135 49 135 -21 0 -132 -44 -189 -76 -35 -19 -65 -34 -67 -32 -1st 2 -15 32 -32 68 -16 36 -44 87 -61 115 l-31 50 -27 -60z"/><path d="M1735 3204 c-31 -75 -56 -158 -62 -207 -7 -58 10 -59 -193 12 -80 28 -146 47 -148 41 -6 -17 57 -134 98 -182 75 -87 195 -151 327 -173 l41 -6 41 125 c54 164 53 191 -5 305 -25 49 -54 97 -64 106 -18 16 -20 15 -35 -21z"/><path d="M4567 3180 c-49 -75 -77 -149 -77 -203 0 -62 71 -287 91 -287 41 0 179 44 227 73 74 44 164 142 203 222 17 36 30 67 28 70 -5 5 -287 -88 -318 -104 -17 -10 -19 -6 -26 37 -11 82 -68 252 -84 252 -3 0 -23 -27 -44 -60z"/><path d="M1966 2853 c-32 -165 -39 -236 -29 -289 l10 -57 -96 7 c-53 4 -147 16 -210 27 -63 10 -116 18 -118 16 -8 -9 64 -102 114 -146 116 -104 244 -147 398 -137 140 9 132 3 140 106 8 103 0 174 -27 248 -23 61 -102 184 -146 225 l-30 29 -6 -29z"/><path d="M4352 2835 c-52 -56 -105 -138 -134 -207 -19 -46 -22 -71 -22 -190 0 -75 3 -140 6 -144 4 -3 44 -11 88 -17 178 -23 334 28 457 151 38 37 77 83 87 101 l19 34 -27 -7 c-51 -13 -213 -35 -310 -42 l-97 -7 8 29 c12 42 7 146 -11 248 -9 49 -18 91 -20 93 -2 2 -22 -17 -44 -42z"/></g></svg>