<svg version="1.0" xmlns="http://www.w3.org/2000/svg" viewBox="0 0 512 512" fill="currentColor"><g transform="translate(0.000000,512.000000) scale(0.100000,-0.100000)"><path d="M2175 5107 c-22 -8 -58 -23 -80 -35 -25 -13 -426 -408 -1041 -1024 -886 -888 -1004 -1009 -1025 -1058 -24 -54 -24 -60 -24 -355 0 -189 5 -333 13 -390 85 -597 335 -1101 743 -1502 129 -127 243 -219 384 -314 123 -83 416 -233 515 -264 30 -10 77 -26 104 -36 27 -11 61 -19 76 -19 15 0 49 -9 74 -21 26 -11 105 -31 176 -44 496 -92 1014 -36 1470 158 671 286 1202 863 1429 1553 81 247 118 451 128 714 25 665 -218 1327 -665 1811 -415 451 -928 722 -1536 815 -141 22 -684 29 -741 11z m580 -298 c55 -6 130 -12 167 -13 37 -2 73 -8 80 -13 7 -6 47 -18 88 -28 314 -75 587 -207 860 -415 327 -250 617 -657 744 -1042 91 -278 130 -509 126 -753 -11 -764 -393 -1462 -1025 -1873 -55 -36 -112 -73 -126 -83 -67 -45 -461 -211 -509 -214 -19 -1 -91 -14 -160 -28 -664 -138 -1366 44 -1900 491 -358 299 -624 731 -735 1192 -40 169 -56 292 -62 501 l-6 197 44 6 c413 64 780 217 1114 466 225 168 481 458 630 714 146 253 261 580 300 859 l6 47 132 0 c73 0 177 -5 232 -11z m-734 -294 c-12 -41 -21 -86 -21 -98 0 -13 -7 -32 -15 -43 -8 -10 -46 -83 -84 -161 -215 -442 -542 -772 -973 -983 -129 -63 -363 -150 -404 -150 -12 0 266 285 746 765 421 421 766 761 768 755 2 -5 -6 -43 -17 -85z"/><path d="M2030 3211 c-181 -25 -355 -152 -440 -322 -60 -119 -77 -266 -44 -393 38 -146 55 -167 499 -615 437 -441 458 -459 532 -445 21 4 49 12 63 19 14 8 210 199 435 427 363 365 415 421 447 483 118 229 82 483 -95 664 -125 129 -242 182 -407 184 -155 2 -280 -47 -395 -154 l-65 -61 -65 61 c-128 119 -299 175 -465 152z m189 -322 c28 -12 84 -58 150 -123 58 -57 116 -109 128 -115 12 -6 40 -11 63 -11 23 0 51 5 63 11 12 6 70 58 128 115 123 120 170 147 263 146 75 0 124 -20 183 -74 69 -64 88 -108 88 -203 0 -69 -4 -86 -27 -125 -15 -25 -178 -196 -362 -380 l-336 -335 -336 335 c-184 184 -347 354 -361 378 -38 63 -43 160 -13 230 24 55 100 134 147 154 76 30 146 29 222 -3z"/></g></svg>