<svg viewBox="0 0 243 244" xmlns="http://www.w3.org/2000/svg" fill="currentColor" stroke="none"><g transform="translate(0,244) scale(0.1,-0.1)"><path d="M1187 1980 c-4 -47 -7 -132 -7 -190 0 -58 -5 -134 -10 -170 -6 -36 -15 -105 -20 -153 -14 -124 -26 -143 -97 -157 -32 -6 -69 -15 -83 -20 -31 -11 -144 -19 -380 -26 -102 -3 -186 -7 -188 -9 -5 -4 38 -9 392 -43 l289 -29 28 -31 c15 -17 30 -46 33 -64 16 -101 46 -447 47 -533 2 -150 14 -79 44 255 14 157 31 299 36 316 17 54 45 60 398 94 179 17 327 33 330 35 2 3 -25 5 -60 6 -269 2 -553 31 -618 62 -48 22 -57 62 -86 372 -14 160 -30 308 -34 330 -6 36 -8 31 -14 -45z"/><path d="M626 1853 c27 -32 63 -76 81 -97 18 -22 33 -47 33 -56 0 -9 -39 -59 -87 -111 -49 -51 -81 -89 -73 -83 8 6 55 43 103 83 49 39 94 71 100 71 7 0 55 -36 107 -79 52 -44 97 -78 99 -76 1 2 -31 43 -72 91 -42 48 -78 95 -80 106 -3 12 10 37 36 70 85 104 92 114 71 97 -98 -81 -138 -109 -154 -109 -11 0 -60 34 -109 75 -50 41 -93 75 -97 75 -4 0 15 -26 42 -57z"/><path d="M1503 878 c20 -25 37 -49 37 -52 0 -3 -15 -22 -32 -42 -24 -27 -27 -34 -12 -26 11 6 26 18 34 26 19 23 37 20 84 -16 39 -31 37 -22 -7 29 -12 14 -17 30 -14 44 5 17 2 20 -14 16 -11 -3 -31 4 -47 17 -60 48 -65 49 -29 4z"/><path d="M1619 883 c-13 -16 -12 -17 4 -4 16 13 21 21 13 21 -2 0 -10 -8 -17 -17z"/></g></svg>