<svg viewBox="0 0 212 202" xmlns="http://www.w3.org/2000/svg" fill="currentColor" stroke="none"><g transform="translate(0,202) scale(0.1,-0.1)"><path d="M574 1757 c32 -42 56 -99 56 -134 0 -28 1 -28 36 15 20 23 53 51 73 62 l36 19 -42 1 c-27 0 -64 12 -109 35 -37 19 -69 35 -71 35 -2 0 7 -15 21 -33z"/><path d="M1008 1570 c-22 -294 -293 -726 -553 -882 -27 -16 -43 -28 -34 -25 225 72 432 98 619 77 179 -20 354 -65 523 -135 45 -19 71 -27 57 -17 -13 9 -64 50 -112 90 -266 222 -429 507 -469 820 -18 143 -25 159 -31 72z"/><path d="M275 1449 c117 -93 273 -251 344 -349 35 -47 67 -86 71 -88 10 -4 81 103 134 199 l35 65 -82 12 c-118 19 -299 82 -439 154 -68 35 -127 65 -133 67 -5 2 26 -25 70 -60z"/><path d="M1637 1369 c-79 -46 -337 -109 -446 -109 -18 0 -31 -5 -31 -12 1 -28 108 -238 121 -238 4 0 19 17 35 38 46 61 184 200 259 260 87 70 90 72 85 72 -3 0 -13 -5 -23 -11z"/><path d="M1645 1030 c4 -8 21 -34 37 -57 15 -23 31 -62 34 -87 l7 -45 21 27 c23 30 58 61 89 78 18 10 15 12 -25 18 -46 7 -88 25 -143 61 -21 14 -27 16 -20 5z"/><path d="M870 676 c0 -2 15 -51 34 -108 48 -143 74 -249 82 -343 l8 -80 8 75 c11 107 42 251 76 356 l29 92 -51 6 c-58 7 -186 8 -186 2z"/></g></svg>